<svg width="24" height="24" viewBox="0 0 24 24" fill="none" xmlns="http://www.w3.org/2000/svg">
<path d="M6.11364 21V3.54545H12.2159C13.4318 3.54545 14.4347 3.75568 15.2244 4.17614C16.0142 4.59091 16.6023 5.15057 16.9886 5.85511C17.375 6.55398 17.5682 7.32954 17.5682 8.18182C17.5682 8.93182 17.4347 9.55114 17.1676 10.0398C16.9063 10.5284 16.5597 10.9148 16.1278 11.1989C15.7017 11.483 15.2386 11.6932 14.7386 11.8295V12C15.2727 12.0341 15.8097 12.2216 16.3494 12.5625C16.8892 12.9034 17.3409 13.392 17.7045 14.0284C18.0682 14.6648 18.25 15.4432 18.25 16.3636C18.25 17.2386 18.0511 18.0256 17.6534 18.7244C17.2557 19.4233 16.6278 19.9773 15.7699 20.3864C14.9119 20.7955 13.7955 21 12.4205 21H6.11364ZM8.22727 19.125H12.4205C13.8011 19.125 14.7813 18.858 15.3608 18.3239C15.946 17.7841 16.2386 17.1307 16.2386 16.3636C16.2386 15.7727 16.0881 15.2273 15.7869 14.7273C15.4858 14.2216 15.0568 13.8182 14.5 13.517C13.9432 13.2102 13.2841 13.0568 12.5227 13.0568H8.22727V19.125ZM8.22727 11.2159H12.1477C12.7841 11.2159 13.358 11.0909 13.8693 10.8409C14.3864 10.5909 14.7955 10.2386 15.0966 9.78409C15.4034 9.32955 15.5568 8.79545 15.5568 8.18182C15.5568 7.41477 15.2898 6.7642 14.7557 6.23011C14.2216 5.69034 13.375 5.42045 12.2159 5.42045H8.22727V11.2159Z" fill="black"/>
</svg>
