<svg width="32" height="32" viewBox="0 0 32 32" fill="none" xmlns="http://www.w3.org/2000/svg">
<path fill-rule="evenodd" clip-rule="evenodd" d="M16.0007 10.7501C13.1012 10.7501 10.7507 13.1006 10.7507 16.0001C10.7507 18.8996 13.1012 21.2501 16.0007 21.2501C18.9002 21.2501 21.2507 18.8996 21.2507 16.0001C21.2507 13.1006 18.9002 10.7501 16.0007 10.7501ZM13.2507 16.0001C13.2507 14.4813 14.4819 13.2501 16.0007 13.2501C17.5195 13.2501 18.7507 14.4813 18.7507 16.0001C18.7507 17.5189 17.5195 18.7501 16.0007 18.7501C14.4819 18.7501 13.2507 17.5189 13.2507 16.0001Z" fill="black"/>
<path fill-rule="evenodd" clip-rule="evenodd" d="M16.0005 2.13525C15.0762 2.13525 14.1718 2.22588 13.2962 2.3991C12.8356 2.4902 12.465 2.83165 12.3365 3.28317L11.4818 6.28629C11.0077 6.50718 10.5526 6.76166 10.1195 7.04661L7.00578 6.26396C6.56066 6.15207 6.09002 6.29312 5.77981 6.63138C4.58665 7.93242 3.63798 9.46299 3.00789 11.1504C2.83942 11.6015 2.94512 12.1094 3.27963 12.4558L5.37662 14.6279C5.31904 15.0776 5.2894 15.5357 5.2894 16.0001C5.2894 16.2589 5.29861 16.5158 5.31673 16.7704L3.10905 19.0571C2.78744 19.3902 2.67632 19.8738 2.82028 20.3139C3.35756 21.9564 4.19274 23.4629 5.26107 24.7698C5.56775 25.145 6.06362 25.3091 6.53356 25.191L9.43311 24.4621C10.1251 24.9999 10.8852 25.4549 11.6987 25.812L12.5362 28.7548C12.6667 29.2133 13.0467 29.5577 13.5158 29.6426C14.3228 29.7888 15.1533 29.8649 16.0005 29.8649C16.8477 29.8649 17.6782 29.7888 18.4853 29.6427C18.9544 29.5577 19.3343 29.2133 19.4648 28.7548L20.3024 25.812C21.1158 25.4549 21.8759 24.9999 22.5679 24.4621L25.4675 25.191C25.9374 25.3091 26.4333 25.145 26.74 24.7698C27.8083 23.4629 28.6435 21.9564 29.1808 20.3139C29.3247 19.8738 29.2136 19.3902 28.892 19.0571L26.6843 16.7704C26.7024 16.5158 26.7116 16.2589 26.7116 16.0001C26.7116 15.5357 26.682 15.0776 26.6244 14.6279L28.7214 12.4558C29.0559 12.1094 29.1616 11.6015 28.9931 11.1504C28.3631 9.46299 27.4144 7.93242 26.2212 6.63138C25.911 6.29312 25.4404 6.15207 24.9953 6.26396L21.8815 7.04661C21.4485 6.76166 20.9934 6.50718 20.5192 6.28629L19.6645 3.28317C19.536 2.83165 19.1654 2.4902 18.7049 2.39909C17.8292 2.22588 16.9248 2.13525 16.0005 2.13525ZM13.7239 7.54121L14.5239 4.73016C15.0068 4.66758 15.4996 4.63525 16.0005 4.63525C16.5014 4.63525 16.9942 4.66758 17.4771 4.73016L18.2771 7.5412C18.3835 7.91519 18.658 8.21835 19.0195 8.36139C19.6898 8.62655 20.3174 8.97771 20.8885 9.4016C21.1894 9.62495 21.5747 9.70149 21.9382 9.61013L24.8564 8.87664C25.4526 9.61684 25.9577 10.4329 26.3548 11.3078L24.3929 13.3399C24.1104 13.6325 23.988 14.0441 24.0645 14.4435C24.161 14.9465 24.2116 15.4668 24.2116 16.0001C24.2116 16.3607 24.1885 16.7153 24.1437 17.0626C24.0951 17.4393 24.2203 17.8176 24.4841 18.0908L26.5516 20.2322C26.2181 21.0627 25.7892 21.845 25.2782 22.5656L22.5637 21.8833C22.1641 21.7829 21.7407 21.8858 21.4318 22.1585C20.6761 22.8255 19.7977 23.355 18.8358 23.7089C18.4609 23.8468 18.1745 24.1556 18.0651 24.5399L17.2814 27.2936C16.8613 27.3407 16.434 27.3649 16.0005 27.3649C15.5671 27.3649 15.1397 27.3407 14.7196 27.2936L13.9359 24.5399C13.8266 24.1556 13.5402 23.8468 13.1653 23.7089C12.2033 23.355 11.3249 22.8255 10.5693 22.1585C10.2604 21.8858 9.83693 21.7829 9.43734 21.8833L6.7228 22.5656C6.21181 21.845 5.78293 21.0627 5.44949 20.2322L7.51694 18.0908C7.78071 17.8176 7.90597 17.4393 7.85738 17.0626C7.81258 16.7153 7.7894 16.3607 7.7894 16.0001C7.7894 15.4668 7.84008 14.9465 7.93652 14.4435C8.01308 14.0441 7.89059 13.6325 7.60815 13.3399L5.64621 11.3078C6.04337 10.4329 6.54844 9.61684 7.14469 8.87664L10.0629 9.61014C10.4263 9.70149 10.8116 9.62495 11.1125 9.4016C11.6837 8.97771 12.3112 8.62655 12.9815 8.36139C13.3431 8.21835 13.6175 7.91519 13.7239 7.54121Z" fill="black"/>
</svg>
