<svg width="32" height="32" viewBox="0 0 32 32" fill="none" xmlns="http://www.w3.org/2000/svg">
<path d="M26.3209 4.87774C23.56 2.11673 19.0977 2.00898 16.3551 4.75162L13.5803 7.52638L15.3481 9.29414L18.1228 6.51938C19.8383 4.80394 22.7168 4.80913 24.5532 6.6455C26.3895 8.48187 26.3947 11.3605 24.6793 13.0759L20.6433 17.1119C18.9279 18.8274 16.0493 18.8222 14.213 16.9858L12.4452 18.7536C15.2062 21.5146 19.6685 21.6223 22.4111 18.8797L26.4471 14.8437C29.1897 12.101 29.0819 7.63875 26.3209 4.87774Z" fill="black"/>
<path d="M10.555 14.087C12.2704 12.3716 15.149 12.3768 16.9853 14.2131L18.7531 12.4454C15.9921 9.68435 11.5298 9.57661 8.78723 12.3192L4.75123 16.3553C2.00862 19.0979 2.11636 23.5602 4.87736 26.3212C7.63835 29.0822 12.1006 29.19 14.8432 26.4473L17.618 23.6726L15.8502 21.9048L13.0755 24.6796C11.3601 26.395 8.48148 26.3898 6.64513 24.5534C4.80877 22.7171 4.80358 19.8385 6.519 18.123L10.555 14.087Z" fill="black"/>
</svg>
