<svg width="21" height="22" viewBox="0 0 21 22" fill="none" xmlns="http://www.w3.org/2000/svg">
<path d="M1.27744 4.86719L20.0274 4.86719" stroke="#A1ACC0" stroke-width="1.9514" stroke-linecap="square" stroke-linejoin="round"/>
<path d="M6.55294 4.86719V5.84289H8.50433V4.86719H7.52864L6.55294 4.86719ZM7.52864 1.74219V0.766488C6.98977 0.766488 6.55294 1.20332 6.55294 1.74219L7.52864 1.74219ZM13.7786 1.74219H14.7543C14.7543 1.20332 14.3175 0.766488 13.7786 0.766488V1.74219ZM12.8029 4.86719V5.84289H14.7543V4.86719H13.7786H12.8029ZM4.40364 20.4922L3.4301 20.5571C3.46427 21.0696 3.88996 21.4679 4.40364 21.4679V20.4922ZM16.9036 20.4922V21.4679C17.4173 21.4679 17.843 21.0696 17.8772 20.5571L16.9036 20.4922ZM7.52864 4.86719H8.50433V1.74219L7.52864 1.74219L6.55294 1.74219V4.86719L7.52864 4.86719ZM7.52864 1.74219V2.71789L13.7786 2.71789V1.74219V0.766488L7.52864 0.766488V1.74219ZM13.7786 1.74219L12.8029 1.74219V4.86719H13.7786H14.7543V1.74219H13.7786ZM3.36197 4.86719L2.38843 4.93209L3.4301 20.5571L4.40364 20.4922L5.37717 20.4273L4.33551 4.80228L3.36197 4.86719ZM4.40364 20.4922V21.4679L16.9036 21.4679V20.4922V19.5165L4.40364 19.5165L4.40364 20.4922ZM16.9036 20.4922L17.8772 20.5571L18.9188 4.93209L17.9453 4.86719L16.9718 4.80228L15.9301 20.4273L16.9036 20.4922Z" fill="#A1ACC0"/>
<path d="M8.56778 9.03418L8.56778 16.3258" stroke="#A1ACC0" stroke-width="1.9514" stroke-linecap="square" stroke-linejoin="round"/>
<path d="M12.7368 9.03418L12.7368 16.3258" stroke="#A1ACC0" stroke-width="1.9514" stroke-linecap="square" stroke-linejoin="round"/>
</svg>
