<svg width="26" height="26" viewBox="0 0 26 26" fill="none" xmlns="http://www.w3.org/2000/svg">
<path d="M22.0308 19.4508C22.0308 18.4091 20.1452 16.0566 20.1452 16.0566C20.1452 16.0566 18.2596 18.5079 18.2596 19.4508C18.2596 19.9509 18.4582 20.4305 18.8119 20.7841C19.1655 21.1377 19.6451 21.3364 20.1452 21.3364C20.6453 21.3364 21.1249 21.1377 21.4785 20.7841C21.8322 20.4305 22.0308 19.9509 22.0308 19.4508Z" fill="#A1ACC0"/>
<path d="M10.3929 3.61849L11.7263 4.95182M20.5263 13.7518L19.1929 12.4185M6.6596 4.68516L13.3263 11.3518M11.7263 4.95182L3.99293 12.6852C3.72627 12.9518 3.35293 13.6452 3.99293 14.2852L9.8596 20.1518C10.1263 20.4185 10.8196 20.7918 11.4596 20.1518C12.0996 19.5118 16.8818 14.7296 19.1929 12.4185M11.7263 4.95182L19.1929 12.4185" stroke="#A1ACC0" stroke-width="2.08905"/>
</svg>
