<svg width="18" height="19" viewBox="0 0 18 19" fill="none" xmlns="http://www.w3.org/2000/svg">
<g clip-path="url(#clip0_4366_2884)">
<path d="M13.4682 8.11445C13.9599 7.32008 14.2303 6.40868 14.2513 5.47466C14.2724 4.54065 14.0433 3.618 13.5878 2.8023C13.1324 1.98659 12.4671 1.30751 11.6609 0.835401C10.8547 0.363292 9.93693 0.115328 9.00269 0.117198H2.25269V18.1172H11.2527C12.4478 18.1185 13.6074 17.7116 14.5398 16.964C15.4721 16.2164 16.1212 15.1728 16.3796 14.006C16.6381 12.8392 16.4903 11.6192 15.9609 10.5478C15.4314 9.47641 14.552 8.61793 13.4682 8.11445ZM5.25269 3.1172H9.00269C9.59942 3.1172 10.1717 3.35425 10.5937 3.77621C11.0156 4.19816 11.2527 4.77046 11.2527 5.3672C11.2527 5.96393 11.0156 6.53623 10.5937 6.95819C10.1717 7.38015 9.59942 7.6172 9.00269 7.6172H5.25269V3.1172ZM11.2527 15.1172H5.25269V10.6172H11.2527C11.8494 10.6172 12.4217 10.8543 12.8437 11.2762C13.2656 11.6982 13.5027 12.2705 13.5027 12.8672C13.5027 13.4639 13.2656 14.0362 12.8437 14.4582C12.4217 14.8801 11.8494 15.1172 11.2527 15.1172Z" fill="#A1ACC0"/>
</g>
<defs>
<clipPath id="clip0_4366_2884">
<rect width="18" height="18" fill="white" transform="translate(0 0.117188)"/>
</clipPath>
</defs>
</svg>
